<svg width="29" height="29" viewBox="0 0 29 29" fill="none" xmlns="http://www.w3.org/2000/svg">
<path d="M14.1667 0C11.3648 0 8.62579 0.83086 6.29609 2.38751C3.9664 3.94417 2.15062 6.1567 1.07838 8.74532C0.00613819 11.3339 -0.274409 14.1824 0.272215 16.9304C0.818839 19.6785 2.16808 22.2028 4.14933 24.184C6.13057 26.1653 8.65483 27.5145 11.4029 28.0611C14.151 28.6077 16.9994 28.3272 19.588 27.255C22.1766 26.1827 24.3892 24.3669 25.9458 22.0372C27.5025 19.7075 28.3333 16.9686 28.3333 14.1667C28.3333 12.3063 27.9669 10.4641 27.255 8.74532C26.543 7.02654 25.4995 5.46482 24.184 4.14932C22.8685 2.83382 21.3068 1.79031 19.588 1.07837C17.8692 0.366432 16.0271 0 14.1667 0ZM11.3333 20.5417V7.79167L19.8333 14.1667L11.3333 20.5417Z" fill="white"/>
</svg>
