<svg width="43" height="43" viewBox="0 0 43 43" fill="none" xmlns="http://www.w3.org/2000/svg">
<rect x="2" y="2" width="39" height="39" rx="19.5" fill="#BCBCBC"/>
<rect x="2" y="2" width="39" height="39" rx="19.5" stroke="white" stroke-width="4"/>
<path d="M19.1521 24.5187L27.274 16.3969C27.4656 16.2052 27.6892 16.1094 27.9448 16.1094C28.2004 16.1094 28.424 16.2052 28.6156 16.3969C28.8073 16.5885 28.9031 16.8163 28.9031 17.0802C28.9031 17.344 28.8073 17.5715 28.6156 17.7625L19.8229 26.5792C19.6313 26.7708 19.4076 26.8667 19.1521 26.8667C18.8965 26.8667 18.6729 26.7708 18.4813 26.5792L14.3604 22.4583C14.1688 22.2667 14.0768 22.0392 14.0844 21.776C14.0921 21.5128 14.1921 21.285 14.3844 21.0927C14.5767 20.9004 14.8045 20.8046 15.0677 20.8052C15.3309 20.8058 15.5583 20.9017 15.75 21.0927L19.1521 24.5187Z" fill="#6C7278"/>
</svg>
